<svg width="49" height="26" viewBox="0 0 49 26" fill="none" xmlns="http://www.w3.org/2000/svg">
<g clip-path="url(#clip0_1036_2584)">
<path d="M15.1702 24.8676C14.7721 24.8676 14.3998 24.6919 14.149 24.3853C13.8983 24.0792 13.8032 23.6832 13.888 23.2989C14.152 22.098 14.5567 20.4772 15.0222 19.3663C14.7192 19.4614 14.4067 19.4795 14.1046 19.4795C14.0519 19.4795 13.9954 19.479 13.9325 19.4778C13.7117 19.4778 13.4985 19.4741 13.2988 19.467C13.0603 19.4584 12.8319 19.4042 12.6236 19.3112C12.595 19.4978 12.5049 19.6718 12.364 19.8055C12.0668 20.0862 11.5989 20.4684 11.0434 20.711C10.2407 21.1152 9.50976 21.2672 9.37283 21.2932C8.67262 21.4523 7.85908 21.5329 6.95473 21.5329C6.05038 21.5329 5.42758 21.4549 5.40058 21.4517C5.03126 21.4065 4.75883 21.0898 4.77438 20.7235C4.78279 20.524 4.79852 20.3317 4.81711 20.1572C3.40919 20.0119 1.7712 19.4501 1.69219 19.4228C1.44693 19.3379 1.26763 19.1287 1.22401 18.8762C1.18039 18.6237 1.27943 18.3678 1.4825 18.2079C2.4092 17.4781 3.04916 16.6814 3.40901 16.168C3.04291 15.8947 2.78531 15.6399 2.76922 15.6239C2.62514 15.4804 2.55042 15.2829 2.564 15.0815C2.57759 14.88 2.67841 14.6941 2.84055 14.5708L4.65461 13.1913C6.38877 11.8329 7.89358 11.5478 8.85103 11.5478C9.3866 11.5478 9.77755 11.6378 9.96435 11.6918C10.1431 11.7429 10.2985 11.854 10.4036 12.0033C10.5594 11.7855 10.7611 11.5974 10.9947 11.4532C11.4402 11.1783 11.6027 11.0605 11.775 10.9358C11.8692 10.8675 11.9665 10.7972 12.1056 10.7033C11.6134 10.3048 11.1823 9.9489 10.7981 9.63174C10.1776 9.11945 9.64187 8.67707 9.02872 8.20071C8.64313 7.90221 8.45865 7.56444 8.48153 7.19727C8.49351 7.0039 8.58164 6.63884 9.03712 6.36746C9.66082 5.99588 10.158 5.74863 10.7105 5.4931C11.5766 5.05495 12.7974 4.46253 13.7194 4.1156C13.9091 4.04446 14.1073 4.00853 14.309 4.00853C14.851 4.00853 15.3638 4.27621 15.6677 4.7126C15.7362 4.69552 15.8072 4.68671 15.8788 4.68671C15.992 4.68671 16.1053 4.7089 16.211 4.75134C16.2364 4.76085 16.2614 4.77195 16.2859 4.78445L18.0056 5.66339C18.1437 5.73383 18.2573 5.83633 18.3388 5.95942C18.6096 5.96576 18.8874 6.04149 19.1648 6.18466C19.7342 6.4784 20.1845 6.75348 20.5575 7.03666C20.6777 6.61471 20.9312 6.19787 21.4628 5.88933C21.9079 5.63081 23.4395 4.78656 24.4497 4.78656C24.5904 4.78656 24.7229 4.80224 24.8435 4.83323C24.9168 4.85208 24.988 4.87338 25.0571 4.89751C25.151 4.52276 25.4007 4.21264 25.7432 4.04604C26.5755 3.64012 27.8288 3.1671 28.8614 2.86913C28.9945 2.83074 29.1313 2.8112 29.2677 2.8112C29.5748 2.8112 29.8644 2.90981 30.1 3.0868C30.2044 2.87847 30.3544 2.67841 30.5669 2.50072C31.0186 2.1228 31.6229 1.93138 32.5796 1.71072C32.867 1.64432 33.1404 1.61069 33.3917 1.61069C33.8779 1.61069 34.249 1.7359 34.5261 1.89932C34.549 1.86622 34.5729 1.83381 34.598 1.80229C34.8965 1.42683 35.3227 1.19895 35.7984 1.16039C36.0345 1.14137 36.2746 1.13926 36.5066 1.13732C36.5956 1.13661 36.6796 1.13591 36.7615 1.13432C36.7726 1.13415 36.7828 1.13397 36.7932 1.13397C37.1271 1.13397 37.4508 1.23752 37.7258 1.41873C37.9428 1.30972 38.2209 1.25654 38.5724 1.25654C38.7899 1.25654 39.0396 1.27715 39.3146 1.318C39.6734 1.37136 39.9942 1.49305 40.2717 1.68043C40.402 1.61491 40.5482 1.57864 40.7003 1.57864C40.7382 1.57864 40.7765 1.58093 40.8142 1.58533C40.8283 1.58709 40.8303 1.58691 40.8425 1.5892C40.8439 1.58938 40.8519 1.59026 40.8541 1.59061C40.8925 1.59537 41.3079 1.66651 41.7631 1.77218C42.668 1.98192 42.9853 2.15115 43.1606 2.27513C43.3319 2.39629 43.452 2.54915 43.5362 2.71205C43.7264 2.61959 43.9438 2.57099 44.1769 2.57099C44.3344 2.57099 44.4997 2.59318 44.6681 2.63685C45.6636 2.89467 46.3824 3.23948 46.8581 3.46754C46.9666 3.51967 47.0605 3.56457 47.1418 3.60103C47.1466 3.60314 47.1513 3.60543 47.1559 3.60754C47.4287 3.73399 47.6379 3.96768 47.7308 4.25068C47.825 4.53773 47.7923 4.85243 47.6407 5.11447C47.4856 5.38303 47.2977 5.68488 47.0499 6.06403C46.9487 6.21865 46.8111 6.34104 46.6518 6.42311C46.6238 6.62827 46.5478 6.82586 46.4277 7.00073C46.304 7.18071 46.1702 7.36826 46.0188 7.57395C45.8638 7.78422 45.6452 7.92687 45.3978 7.98445C45.3633 8.2951 45.2368 8.59255 45.0271 8.84173C44.7478 9.17352 44.4347 9.52555 44.2209 9.76241C44.1229 9.87142 44.0031 9.95736 43.8707 10.0162C43.8263 10.1719 43.7459 10.3185 43.6313 10.442C43.2212 10.883 42.6683 11.4543 42.3594 11.674C42.3587 11.6746 42.358 11.6751 42.3571 11.6756C42.222 11.7711 42.0675 11.8276 41.9066 11.8413C41.7668 12.1051 41.5745 12.3408 41.338 12.5315C41.0291 12.7805 40.3866 13.2738 39.5534 13.7792C39.3548 13.8998 39.1288 13.9637 38.9002 13.9637C38.7363 13.9637 38.5742 13.9303 38.4235 13.8681C38.2381 14.3006 37.8895 14.6509 37.4363 14.8326C36.9587 15.0239 36.301 15.2669 35.4814 15.5549C35.3725 15.5931 35.2599 15.6126 35.1469 15.6126C34.9206 15.6126 34.7076 15.5364 34.5345 15.3957C34.0887 15.8419 33.5234 16.1784 32.9223 16.3521C32.2035 16.5601 31.4371 16.7687 30.9207 16.9072C30.7686 16.9482 30.6118 16.969 30.4552 16.969C30.0474 16.969 29.6552 16.8295 29.3333 16.5731C29.1468 16.8353 28.9084 17.0591 28.6188 17.2428C28.103 17.57 27.545 17.6891 27.1756 17.7678C27.129 17.7776 27.085 17.7872 27.0444 17.7963C26.9971 17.8071 26.9397 17.8211 26.8787 17.8361C26.5537 17.9159 26.1084 18.0253 25.6331 18.0253C25.4973 18.0253 25.3668 18.0161 25.2418 17.9976C25.1244 18.1302 24.9645 18.2255 24.7804 18.2649C24.5266 18.3193 23.9604 18.4248 23.7965 18.4498C23.7466 18.4574 23.6966 18.4613 23.6474 18.4613C23.6444 18.4613 23.6414 18.4613 23.6383 18.4613C23.0758 19.92 22.358 21.4563 21.4487 22.9139C21.0795 23.5053 20.4996 23.9264 19.8159 24.0998C18.8422 24.3467 17.2675 24.6794 15.2948 24.8625C15.2534 24.8664 15.2115 24.8683 15.1702 24.8683V24.8676ZM9.46096 18.4391C9.59789 18.456 9.72624 18.4639 9.85638 18.4639C10.0536 18.4639 10.2699 18.4453 10.5353 18.4055C10.735 18.3593 10.9567 18.2873 11.1944 18.1908C11.1949 18.1906 11.1957 18.1903 11.1962 18.1901C11.3022 18.1475 11.4141 18.1258 11.5285 18.1258C11.5518 18.1258 11.5748 18.1267 11.5979 18.1285C10.8793 16.5326 10.4676 15.0466 10.2808 14.2749C10.2795 14.2696 10.2783 14.2645 10.2772 14.2592C10.2055 13.975 10.107 13.5279 10.0797 13.3925C9.99206 13.4504 9.89374 13.4934 9.78791 13.5184C8.99457 13.7061 8.42164 14.1277 8.06913 14.4655C8.07521 14.4708 8.0811 14.4762 8.087 14.4817C8.45704 14.8147 8.54892 15.352 8.30974 15.7875C8.07163 16.2225 7.76345 16.6733 7.50353 17.029C7.88554 17.1678 8.21267 17.2175 8.44524 17.2323C8.76504 17.253 9.05803 17.4094 9.25002 17.6612C9.42074 17.8853 9.49546 18.164 9.46114 18.4391H9.46096ZM19.2771 17.9641C19.2901 18.0661 19.2994 18.1677 19.3025 18.2676C19.3078 18.2656 19.3132 18.2635 19.3187 18.2616C19.4085 18.2278 19.5438 18.1295 19.7115 17.942C19.5529 17.9557 19.4083 17.9638 19.2771 17.964V17.9641ZM15.021 12.8029C15.071 12.8118 15.1209 12.8224 15.1709 12.8342C15.2335 12.849 15.2948 12.8675 15.3545 12.8892C15.3563 12.8046 15.3588 12.7234 15.3617 12.646C15.3624 12.6297 15.3635 12.6134 15.3653 12.5973C15.3656 12.5873 15.3662 12.5774 15.3665 12.5674C15.3561 12.5743 15.3458 12.5813 15.3356 12.5882C15.2256 12.6618 15.1214 12.7315 15.021 12.8029ZM25.3512 12.3092C25.3473 12.3413 25.3432 12.3739 25.3385 12.4068C25.3603 12.4057 25.3818 12.4049 25.4032 12.404C25.3857 12.3728 25.3684 12.3413 25.351 12.3092H25.3512ZM31.5903 12.0129C31.5946 12.0352 31.5993 12.0521 31.6034 12.0648C31.6155 12.0646 31.6266 12.0634 31.6341 12.0623C31.635 12.062 31.6354 12.062 31.6355 12.062C31.6357 12.062 31.6355 12.062 31.6361 12.062C31.6361 12.062 31.638 12.0618 31.6388 12.0616C31.6404 12.0613 31.6431 12.0608 31.6472 12.0597C31.714 12.0435 31.8152 12.019 31.881 11.7651C31.9389 11.5421 31.943 11.2322 31.8931 10.868C31.7945 10.8079 31.7022 10.7438 31.6164 10.6769C31.613 10.7551 31.6096 10.8305 31.6064 10.9027C31.5853 11.3736 31.5685 11.7485 31.5903 12.0127V12.0129ZM38.2191 9.64319C38.2329 9.71698 38.2467 9.792 38.2604 9.8686C38.2765 9.79252 38.2924 9.71662 38.308 9.64107C38.2787 9.64213 38.249 9.64283 38.2191 9.64336V9.64319Z" fill="white"/>
<path d="M36.7941 1.83743C37.1901 1.83743 37.5605 2.09542 37.7181 2.46753C37.7203 2.47193 37.7226 2.47669 37.7242 2.48162C37.7242 2.48162 37.7957 2.19721 38.0254 2.05967C38.1255 1.99927 38.3039 1.96017 38.5733 1.96017C38.7465 1.96017 38.9575 1.97638 39.2092 2.01371C39.8128 2.10352 40.2235 2.45732 40.4263 2.97929L40.4258 2.97982V2.98088C40.6303 3.5062 40.8804 4.28124 41.074 5.2993C41.4072 7.05242 41.5259 9.43213 41.4517 10.8711C41.4292 11.3082 41.2229 11.7137 40.8865 11.9851C40.5016 12.2954 39.8913 12.7466 39.1799 13.1782C39.089 13.2334 38.9939 13.2582 38.9017 13.2582C38.5719 13.2582 38.2812 12.9414 38.3706 12.5664C38.6609 11.3473 39.1237 9.48109 39.2839 8.20028C39.4947 6.51143 39.4337 5.99579 39.2238 5.99579C39.1908 5.99579 39.1539 6.00865 39.1139 6.03172C38.844 6.18775 39.1986 7.05049 39.0281 8.49965C39.005 8.69513 38.8633 8.85433 38.674 8.89219C38.5467 8.91808 38.379 8.93851 38.1679 8.93851C38.1055 8.93851 38.0392 8.93675 37.9691 8.9327C37.7355 8.91914 37.5485 8.72683 37.5353 8.48803C37.5074 7.99969 37.5429 7.22642 37.2995 7.22642C37.2734 7.22642 37.2442 7.23522 37.2113 7.25424C36.7984 7.49321 37.8772 10.0082 37.8585 13.1467C37.8552 13.6028 37.5835 14.0123 37.1679 14.179C36.6297 14.3946 35.9269 14.6496 35.2425 14.8902C35.2099 14.9016 35.1783 14.9069 35.1481 14.9069C34.977 14.9069 34.8529 14.7355 34.8706 14.5371C34.9684 13.4739 35.2351 11.7241 35.2594 9.16568C35.2814 6.8374 35.2115 5.13904 34.9164 3.33837C34.7888 2.56069 35.2072 1.91403 35.857 1.86155C36.1516 1.83778 36.4766 1.84359 36.7762 1.83778C36.7819 1.83778 36.7877 1.83778 36.7934 1.83778M40.7008 2.28262C40.71 2.28262 40.7193 2.28315 40.7286 2.28421C40.7286 2.28421 40.7419 2.28632 40.7655 2.28914C40.7699 2.28967 42.3257 2.55118 42.7442 2.84704C43.3269 3.25912 42.7931 5.01507 42.7315 5.79327C42.7776 5.74784 42.8938 5.62492 42.9437 5.58477C43.0913 5.46678 43.2647 5.41236 43.4358 5.41236C43.7567 5.41236 44.0697 5.60414 44.1902 5.92976L44.1912 5.9287L44.1923 5.92711C44.4127 6.5234 44.5838 7.19542 44.6739 7.62547C44.7306 7.89632 44.658 8.17685 44.4771 8.3917C44.2215 8.69548 43.9235 9.03184 43.687 9.29406C43.621 9.36768 43.5323 9.40149 43.4447 9.40149C43.3026 9.40149 43.1634 9.3122 43.1273 9.15811C43.0854 8.98042 43.0486 8.77526 43.0322 8.5634C42.9333 7.29774 43.0332 7.14329 42.8563 7.10385C42.8452 7.10138 42.8346 7.10032 42.8246 7.10032C42.56 7.10032 42.6425 7.92185 42.82 8.65075C42.8579 8.80678 42.8981 8.94379 42.937 9.06548C43.0157 9.2724 43.0976 9.44675 43.1603 9.57143C43.2263 9.70192 43.2038 9.85901 43.1042 9.96626C42.7149 10.3849 42.1888 10.9266 41.9414 11.1025C41.9086 11.1256 41.87 11.1396 41.8307 11.1396C41.8212 11.1396 41.8117 11.1388 41.8023 11.1372C41.7138 11.121 41.6534 11.0435 41.6571 10.9574L41.6775 10.3762C41.688 9.4707 41.6439 8.00621 41.4775 6.42056C41.4428 6.09353 41.2004 4.27912 40.6105 2.85796C40.5989 2.83313 40.5874 2.80812 40.5758 2.78434C40.5681 2.76814 40.562 2.75124 40.557 2.73398C40.5372 2.68907 40.517 2.64417 40.4966 2.60014C40.4719 2.54713 40.4641 2.48638 40.4839 2.43178C40.5179 2.3395 40.6064 2.2828 40.7008 2.2828M33.3918 2.31467C34.6618 2.31467 35.0583 3.4391 34.8744 5.22375L34.8739 5.22481C34.738 6.5382 34.2789 7.57581 34.0794 7.97609C34.0217 8.09091 34.0151 8.22423 34.0635 8.34327C34.8476 10.2741 34.9334 11.7796 34.8272 13.2013C34.7369 14.4096 33.7997 15.3644 32.7221 15.6758C32.0668 15.8654 31.3439 16.0635 30.7341 16.2271C30.6408 16.2523 30.5478 16.2643 30.4563 16.2643C29.8875 16.2643 29.3855 15.8003 29.3244 15.1543C29.1853 13.6715 29.1583 12.0413 28.8807 10.1843C28.542 7.91499 26.7299 6.73772 25.8491 5.56839C25.6264 5.27218 25.7386 4.83403 26.0602 4.67747C26.9097 4.2631 28.1297 3.81421 29.0627 3.54512C29.131 3.52539 29.2002 3.51553 29.2681 3.51571C29.4933 3.51571 29.7062 3.62331 29.8364 3.8334C30.7627 5.33135 30.9585 8.95136 30.9222 10.1369C30.8952 11.0083 30.8385 11.6528 30.8814 12.104C30.9731 12.6735 31.3533 12.77 31.6004 12.77C31.7268 12.77 31.8183 12.7448 31.8183 12.7448C32.6924 12.5335 32.7001 11.4727 32.6007 10.761C32.5782 10.6266 32.5551 10.5065 32.5342 10.4063C31.9425 10.1501 31.5973 9.69048 31.4093 9.34267C31.2795 9.10105 31.3004 8.8059 31.4702 8.59035C32.0711 7.82887 32.0784 7.20176 32.0784 7.20176C31.7711 6.80641 30.6984 5.58353 30.6054 4.43533C30.4933 3.05643 31.1376 2.76726 32.743 2.39674C32.9808 2.34179 33.1967 2.31538 33.3919 2.31538M33.0344 5.51573C33.038 5.51573 33.0417 5.51573 33.0453 5.5152C33.1876 5.5027 33.2872 5.25034 33.2663 4.95308C33.2459 4.66338 33.1191 4.43586 32.981 4.43586C32.9774 4.43586 32.9736 4.43586 32.9701 4.43639C32.8276 4.44889 32.7287 4.70072 32.7491 4.99851C32.7695 5.2882 32.8962 5.51573 33.0344 5.51573ZM44.1775 3.27585C44.2717 3.27585 44.3752 3.28959 44.4867 3.31847C45.6347 3.61574 46.3791 4.03275 46.8458 4.24249L46.8474 4.24355H46.848C47.0498 4.33407 47.1301 4.57604 47.0201 4.76623C46.848 5.06402 46.6453 5.38365 46.4493 5.68321C46.3818 5.78641 46.2724 5.8373 46.1631 5.8373C46.0466 5.8373 45.9302 5.77936 45.865 5.66525C45.811 5.57209 45.755 5.46695 45.7066 5.34509C45.5405 4.9286 45.3433 4.74563 45.2373 4.74563C45.1313 4.74563 45.1151 4.94251 45.3367 5.2801C45.4175 5.40355 45.5738 5.63584 45.7078 5.74256C45.9722 5.95318 46.0273 6.32863 45.8366 6.60582C45.6935 6.8138 45.5579 7.00171 45.4408 7.1609C45.3668 7.26128 45.2568 7.30883 45.1474 7.30883C45.0046 7.30883 44.863 7.22765 44.8047 7.07637C44.1197 5.60819 43.6523 4.57868 43.5733 4.24883C43.5616 4.2071 43.5523 4.16589 43.5452 4.12538C43.5452 4.12538 43.5452 4.12538 43.5456 4.12538C43.5552 4.12538 43.7481 4.1916 43.7481 4.1916L43.5436 4.11957C43.4597 3.6219 43.7043 3.27585 44.1778 3.27585M14.3101 4.71217C14.6274 4.71217 14.9327 4.87084 15.1056 5.15049C15.4486 5.70452 15.9209 6.68525 16.2777 8.26244C16.9071 11.0474 15.6218 11.4994 14.5745 12.2523C13.5253 13.0057 12.853 12.8843 13.0768 14.2637C13.0768 14.2637 13.5927 13.4649 14.5614 13.4649C14.7 13.4649 14.8476 13.4813 15.0044 13.5186C16.1177 13.783 16.1876 15.9422 15.8081 17.2979V17.2984H15.8086C15.4431 18.6033 14.9535 18.7748 14.1059 18.7748C14.0523 18.7748 13.9973 18.7741 13.9408 18.7731C13.6978 18.7731 13.4944 18.7687 13.3255 18.7629C12.9263 18.7483 12.5679 18.517 12.3991 18.1601C11.6246 16.5233 11.1846 14.9675 10.9774 14.1112V14.1097C10.8956 13.7884 10.7839 13.2686 10.7796 13.2427C10.7785 13.2388 10.7785 13.2372 10.7785 13.2372C10.7713 13.1907 10.7658 13.1435 10.7658 13.096C10.7626 12.685 10.9912 12.2873 11.3756 12.0501C12.1029 11.6012 12.1271 11.5405 12.5505 11.2578C13.2422 10.7959 12.9124 10.4428 12.6896 10.2635C11.3612 9.19122 10.5239 8.46443 9.47282 7.64766C9.29298 7.50854 8.98677 7.22148 9.40846 6.97018C9.99569 6.62026 10.4741 6.38094 11.0271 6.12541C11.959 5.65362 13.1136 5.09801 13.9758 4.77363C14.0852 4.73259 14.1985 4.71287 14.3103 4.71287M14.0934 16.819C14.2581 16.819 14.405 16.6461 14.4245 16.4274C14.4438 16.2053 14.3249 16.0206 14.1572 16.0153C14.1547 16.0153 14.1522 16.0153 14.1496 16.0153C13.9849 16.0153 13.838 16.1882 13.8185 16.4069C13.7992 16.629 13.9186 16.8137 14.0857 16.819C14.0882 16.819 14.0907 16.819 14.0934 16.819ZM15.8801 5.39105C15.9055 5.39105 15.932 5.39704 15.9579 5.4106V5.40954L17.6776 6.28848C17.7888 6.34483 17.7975 6.49593 17.6964 6.56902C17.3803 6.79654 16.9518 7.64731 17.0723 9.34073C17.0789 9.43548 17.0031 9.51684 16.9062 9.51684C16.821 9.51684 16.7495 9.4545 16.7407 9.3712C16.6874 8.88603 16.4382 7.0489 15.7318 5.62774C15.6739 5.51133 15.7666 5.39105 15.88 5.39105M24.4507 5.49073C24.529 5.49073 24.6008 5.4983 24.6643 5.51468C26.1977 5.90792 25.9095 7.75526 25.8062 8.50529C25.7029 9.25532 25.0683 10.8427 24.3536 11.093L24.3525 11.0935H24.3536C24.3536 11.0935 24.3561 11.0932 24.3606 11.0932C24.4235 11.0932 24.8793 11.1474 24.5554 12.7538C24.1732 14.6466 23.1502 18.8428 20.8409 22.5446C20.5705 22.9779 20.1389 23.2904 19.6391 23.417C18.7634 23.639 17.2008 23.9775 15.2293 24.1607C15.21 24.1624 15.1907 24.1633 15.1717 24.1633C14.7961 24.1633 14.5065 23.819 14.5882 23.4485C14.8187 22.401 15.2682 20.5385 15.772 19.4354C15.9146 19.1237 16.2303 18.9312 16.5671 18.9312C16.6299 18.9312 16.6935 18.9379 16.7568 18.9518C17.1544 19.0387 17.7006 19.1279 18.2679 19.1279C18.7117 19.1279 19.1683 19.0732 19.5757 18.9198C20.92 18.4128 22.3858 14.4934 22.5452 12.1353C22.559 11.9279 22.4123 11.7449 22.2044 11.7097C22.1641 11.7032 22.1196 11.6946 22.0712 11.6859C21.8892 11.6512 21.7541 11.4373 21.766 11.2553C21.7776 11.0858 21.8023 10.8697 21.8551 10.6564C21.9089 10.4372 22.1062 10.2794 22.3356 10.2773C22.6307 10.2736 23.0587 10.2042 23.3511 9.87873C23.82 9.35658 24.0653 8.04389 23.6073 7.85863C23.5522 7.83644 23.5039 7.82623 23.4616 7.82623C23.1779 7.82623 23.1711 8.28269 23.3175 8.61676C23.3445 8.67805 23.3675 8.73264 23.3867 8.78089C23.4664 8.98024 23.4015 9.20654 23.2278 9.33598C22.9677 9.52987 22.5268 9.7979 21.9505 9.9247C21.9214 9.93104 21.8926 9.93421 21.8643 9.93421C21.6979 9.93421 21.5497 9.82837 21.4816 9.66917C21.3431 9.34584 21.1457 8.77015 21.1693 7.82623C21.1863 7.15351 21.3529 6.77118 21.8268 6.49611C22.4859 6.11326 23.7404 5.4909 24.4507 5.4909M26.2002 6.54788C26.2342 6.54788 26.2688 6.56021 26.2967 6.58874C26.7436 7.04468 27.2824 7.53442 27.6196 8.11064C27.6707 8.19887 27.6129 8.29255 27.5057 8.30013C26.8289 8.34891 26.5277 8.52924 26.289 8.59422C26.2763 8.59774 26.2637 8.59951 26.2513 8.59951C26.1748 8.59951 26.1103 8.53611 26.123 8.46056C26.2252 7.8692 26.1812 7.11741 26.0724 6.69933L26.0718 6.69828C26.0497 6.61269 26.1228 6.54788 26.2002 6.54788ZM18.3029 6.66341C18.4613 6.66341 18.6393 6.70796 18.8344 6.80869C19.3077 7.05295 19.8708 7.37293 20.3293 7.76019C20.75 8.11504 21.0331 8.6018 21.1404 9.13698C21.2911 9.89353 21.5176 11.2502 21.5335 12.6453C21.5571 14.7494 21.7705 16.9833 20.3706 17.1594C19.9016 17.2184 19.5399 17.2602 19.2737 17.2602C18.7453 17.2602 18.5934 17.0953 18.725 16.5723C18.9228 15.786 19.4958 14.8241 19.6245 13.1934C19.7503 11.5987 19.5866 11.2508 19.3277 11.2508C19.3218 11.2508 19.3159 11.2509 19.31 11.2513C19.0406 11.2664 19.1291 11.939 19.2385 12.5522C19.3479 13.1652 19.7135 13.7268 18.8899 14.0945C18.6872 14.185 18.5376 14.2222 18.4268 14.2222C18.0634 14.2222 18.1184 13.8228 18.0998 13.5958C18.0823 13.3806 18.0028 13.2268 17.8969 13.2268C17.8567 13.2268 17.8129 13.249 17.7671 13.2985C17.6011 13.4783 17.7441 13.8596 17.8387 14.359C17.9332 14.8583 18.2945 16.4506 18.4792 17.5072C18.6123 18.2738 18.7757 18.9256 17.9822 18.9256C17.964 18.9256 17.9454 18.9252 17.9261 18.9245C16.986 18.8904 16.4218 18.8904 16.3233 18.084C16.2094 17.1461 16.0176 14.2111 16.0775 12.6735L16.078 12.673H16.0791C16.1367 11.1937 16.3764 9.78082 17.3351 9.78082C17.3728 9.78082 17.412 9.78311 17.452 9.78751C17.452 9.78751 17.292 8.53752 17.4877 7.46152C17.5693 7.01333 17.8592 6.66358 18.3027 6.66376M34.8288 7.0246C34.8714 7.0246 34.9139 7.05524 34.9191 7.11177C34.9681 7.68411 35.0242 8.60215 34.9802 9.44322C34.9772 9.50169 34.9336 9.53357 34.8898 9.53357C34.8537 9.53357 34.8177 9.51191 34.8043 9.46594C34.7124 9.1486 34.5723 8.71309 34.3842 8.25716C34.3517 8.17809 34.354 8.08827 34.3892 8.01079V8.01026C34.4734 7.82605 34.6322 7.46011 34.7444 7.09117C34.7582 7.04591 34.7936 7.0246 34.829 7.0246M27.8166 8.55918C28.1049 8.55918 28.3067 8.84764 28.2783 9.11602L28.2788 9.11655H28.2794C28.1996 9.87257 27.5327 10.5349 28.473 12.2783C29.0085 13.2705 29.235 14.2092 29.0867 15.27C28.8745 16.787 27.5137 16.9678 26.8863 17.1098C26.5919 17.1763 26.1089 17.3208 25.6348 17.3208C25.0399 17.3208 24.4589 17.093 24.2828 16.1977C24.0772 15.1536 24.2839 14.4284 24.5676 13.6361C24.6727 13.3431 25.0046 13.1309 25.3148 13.1141C25.4285 13.108 25.5547 13.1036 25.6827 13.1036C25.9878 13.1036 26.3021 13.1287 26.4766 13.217C26.8967 13.4292 26.6344 14.0987 26.5579 14.3905C26.5271 14.5092 26.5881 14.6392 26.698 14.6933C26.7315 14.7089 26.7667 14.7163 26.8015 14.7163C26.9006 14.7163 26.9966 14.6572 27.0384 14.5607C27.4342 13.6491 26.5052 13.0442 25.8976 11.8117C25.4835 10.9716 25.5368 10.0813 25.6562 9.61334C25.7304 9.32083 25.9492 9.06636 26.2329 8.96616C26.8411 8.75166 27.404 8.5951 27.7772 8.56094C27.7905 8.55971 27.8035 8.55918 27.8164 8.55918M8.85216 12.2517C9.29978 12.2517 9.61601 12.3241 9.76527 12.3676C9.81854 12.3822 9.84607 12.4381 9.82748 12.4895C9.7978 12.5701 9.77635 12.6416 9.76205 12.6959C9.744 12.763 9.69108 12.8167 9.62244 12.8329C8.43261 13.1145 7.66358 13.8267 7.29515 14.2497C7.155 14.4111 7.18074 14.6554 7.35075 14.7864C7.44531 14.86 7.53272 14.9349 7.6053 15.0004C7.73294 15.1152 7.76476 15.3015 7.68235 15.4516C7.35075 16.057 6.86702 16.7047 6.60192 17.0443C6.50127 17.1737 6.5415 17.3616 6.68772 17.438C7.38989 17.8042 8.01002 17.9098 8.40043 17.9347C8.63246 17.9498 8.79674 18.1648 8.74669 18.3885C8.72864 18.4686 8.70987 18.5477 8.69235 18.6202C8.64229 18.8261 8.77315 19.0307 8.98373 19.073C9.29996 19.1371 9.57382 19.1679 9.85805 19.1679C10.1092 19.1679 10.3684 19.1438 10.6716 19.0973C10.8713 19.0529 11.1346 18.977 11.4681 18.8416C11.4882 18.8335 11.5093 18.8296 11.53 18.8296C11.5718 18.8296 11.6131 18.8455 11.6446 18.8752C11.6952 18.9235 11.7683 18.9885 11.8519 19.0496L11.8514 19.0485C11.9344 19.1096 11.9437 19.2273 11.8695 19.2977C11.656 19.4992 11.2306 19.863 10.7374 20.0743C9.9435 20.4778 9.22702 20.6035 9.22702 20.6035C8.4596 20.7795 7.63498 20.8284 6.95604 20.8284C6.10979 20.8284 5.49002 20.7525 5.49002 20.7525C5.51863 20.074 5.64018 19.4803 5.64018 19.4803C5.57136 19.4846 5.50039 19.4867 5.42728 19.4867C4.03848 19.4867 1.93018 18.7579 1.93018 18.7579C3.57961 17.4592 4.38671 15.9586 4.38778 15.9568C3.80216 15.6492 3.27875 15.1282 3.27875 15.1282L5.09693 13.7456C6.66591 12.5154 7.9984 12.2519 8.85216 12.2519M23.9914 16.3369C24.0041 16.3369 24.017 16.3384 24.0299 16.342C24.0855 16.3576 24.1223 16.4048 24.1337 16.4599C24.2222 16.8905 24.4415 17.1901 24.6704 17.3259C24.7776 17.3898 24.7522 17.5495 24.6296 17.5756C24.3851 17.6281 23.8302 17.7311 23.6884 17.7527C23.6745 17.7548 23.6613 17.7559 23.6489 17.7559C23.5356 17.7559 23.4891 17.6705 23.5224 17.5773L23.5229 17.5758L23.8532 16.4395C23.8715 16.3774 23.9287 16.3369 23.9912 16.3369M36.7941 0.428589C36.7794 0.428589 36.765 0.428589 36.7503 0.428941C36.7496 0.428941 36.7489 0.428941 36.7482 0.428941C36.6704 0.430526 36.5885 0.43123 36.5017 0.431935C36.268 0.433872 36.0031 0.435985 35.7407 0.457294C35.2135 0.499911 34.7296 0.705426 34.3415 1.04566C34.0689 0.959017 33.7541 0.905129 33.3925 0.905129C33.0862 0.905129 32.7582 0.945105 32.4173 1.02365C31.5512 1.22353 30.7227 1.44559 30.1049 1.96264C30.0192 2.03431 29.9392 2.11021 29.8648 2.19017C29.6744 2.13469 29.474 2.10581 29.2684 2.10581C29.0638 2.10581 28.8594 2.13487 28.661 2.1921C27.5763 2.50504 26.3071 2.9844 25.4272 3.41339C25.1087 3.56836 24.842 3.80223 24.6484 4.08875C24.5835 4.08365 24.5175 4.08101 24.4505 4.08101C23.934 4.08101 23.3154 4.23527 22.5588 4.55279C21.8949 4.83139 21.3175 5.15525 21.1001 5.28151C20.768 5.47435 20.4945 5.71385 20.283 5.99685C20.0456 5.8528 19.7854 5.70786 19.4976 5.55941C19.2321 5.4224 18.9629 5.331 18.6933 5.28609C18.5861 5.18694 18.4647 5.10241 18.3329 5.03549L16.6161 4.15796C16.5684 4.13348 16.5194 4.112 16.4699 4.09316C16.3138 4.03205 16.1485 3.99507 15.9813 3.9845C15.8249 3.83023 15.6465 3.6978 15.4515 3.59214C15.1029 3.40318 14.7082 3.30315 14.3101 3.30315C14.021 3.30315 13.7373 3.35457 13.4667 3.45619C13.4662 3.45619 13.4658 3.45654 13.4653 3.45671C12.702 3.74394 11.6696 4.2159 10.3965 4.85992C9.90256 5.08868 9.3509 5.35741 8.66839 5.76404C8.43583 5.90263 8.2433 6.0731 8.09618 6.27069C7.90187 6.53151 7.78871 6.83687 7.76923 7.15386C7.75099 7.4476 7.80444 7.89209 8.16232 8.34116C8.27869 8.48715 8.41831 8.62258 8.58938 8.75483C9.19341 9.22415 9.72487 9.663 10.3402 10.1711C10.5255 10.3241 10.7218 10.4863 10.9308 10.6578C10.8457 10.7128 10.7436 10.7772 10.6165 10.8556C10.5123 10.9199 10.4127 10.9908 10.3185 11.0676C10.2681 11.0472 10.2165 11.0294 10.1639 11.0144C9.89112 10.9357 9.44404 10.8427 8.85252 10.8427C7.78192 10.8427 6.10907 11.1541 4.21528 12.6362L2.40515 14.0126C2.08069 14.2593 1.87941 14.6313 1.85206 15.034C1.82471 15.4368 1.97433 15.8318 2.26249 16.1188C2.28126 16.1375 2.34079 16.196 2.4325 16.2793C2.09178 16.697 1.62628 17.1933 1.03727 17.6569C0.631122 17.9767 0.433055 18.4887 0.52029 18.9936C0.607525 19.4985 0.965941 19.9172 1.45664 20.0868C1.48042 20.0949 2.04584 20.2897 2.79288 20.4839C3.24622 20.6018 3.66934 20.6946 4.05994 20.762C4.06458 21.4654 4.59801 22.0626 5.31359 22.1503C5.34255 22.1538 6.03185 22.2369 6.95604 22.2369C7.88024 22.2369 8.77207 22.1511 9.52198 21.9821C9.72684 21.9424 10.4975 21.7743 11.353 21.3463C11.9948 21.0621 12.5246 20.6303 12.8589 20.3147C12.8598 20.314 12.8605 20.3131 12.8614 20.3124C12.9159 20.2606 12.9663 20.2055 13.0123 20.1476C13.0983 20.1597 13.1853 20.1673 13.2727 20.1705C13.2733 20.1705 13.2738 20.1705 13.2745 20.1705C13.4805 20.1777 13.7 20.1816 13.9268 20.1818C13.9411 20.1821 13.9551 20.1823 13.9687 20.1825C13.653 21.1649 13.3843 22.2686 13.1905 23.1495C13.0598 23.7424 13.2068 24.354 13.5938 24.8269C13.9812 25.3001 14.5562 25.5714 15.1717 25.5714C15.2354 25.5714 15.2997 25.5684 15.3632 25.5626C17.3828 25.3751 18.997 25.034 19.9956 24.7807C20.4226 24.6724 20.8191 24.487 21.174 24.2295C21.5301 23.9712 21.8279 23.6524 22.0592 23.2819C22.8413 22.0284 23.5431 20.628 24.1552 19.1024C24.4036 19.0577 24.7458 18.9925 24.9344 18.952C25.1305 18.9099 25.3134 18.833 25.4762 18.725C25.5284 18.7273 25.5813 18.7284 25.6348 18.7284C26.1979 18.7284 26.7127 18.6021 27.0534 18.5184C27.111 18.5044 27.1651 18.491 27.2057 18.4818C27.2408 18.4739 27.2835 18.4647 27.3287 18.455C27.7231 18.371 28.383 18.2302 29.0078 17.8339C29.1784 17.7258 29.3357 17.6053 29.4792 17.4738C29.7863 17.6039 30.1176 17.6723 30.4572 17.6723C30.6769 17.6723 30.8968 17.6432 31.1106 17.5858C31.6299 17.4465 32.4012 17.2366 33.1259 17.0268C33.5253 16.9115 33.9089 16.7385 34.2661 16.5128C34.3994 16.4284 34.528 16.3376 34.6509 16.2405C34.8111 16.29 34.979 16.3159 35.149 16.3159C35.3442 16.3159 35.5376 16.2826 35.724 16.2171C36.5531 15.9258 37.2206 15.6793 37.7072 15.4843C37.7076 15.4843 37.7078 15.4842 37.7081 15.484C38.1361 15.3123 38.5041 15.03 38.7801 14.6632C38.8209 14.6658 38.8617 14.667 38.9022 14.667C39.2633 14.667 39.6191 14.567 39.9308 14.3777C40.7991 13.851 41.4701 13.3357 41.7928 13.0756C42.0143 12.897 42.2065 12.6887 42.365 12.4585C42.5096 12.4083 42.6476 12.3375 42.7755 12.2472C42.7769 12.2461 42.7783 12.2451 42.7797 12.2442C42.8868 12.1679 43.2127 11.9362 44.16 10.9174C44.1603 10.917 44.1605 10.9167 44.1608 10.9165C44.2778 10.7906 44.3743 10.6504 44.4488 10.4997C44.5615 10.4224 44.6655 10.3315 44.7583 10.2285C44.9755 9.98757 45.2938 9.62972 45.5793 9.29072C45.776 9.05685 45.9261 8.78406 46.0176 8.49543C46.2452 8.37075 46.4449 8.19658 46.599 7.98772C46.5991 7.98736 46.5995 7.98701 46.5997 7.98666C46.7554 7.77498 46.8934 7.58127 47.0216 7.39495C47.1383 7.22536 47.2275 7.04151 47.2879 6.84955C47.4277 6.73614 47.551 6.60054 47.6524 6.44557C47.9079 6.05479 48.102 5.74256 48.2639 5.4622C48.5144 5.02933 48.5687 4.50841 48.4127 4.03346C48.2591 3.5659 47.9139 3.17988 47.4636 2.97049C47.4558 2.96679 47.4477 2.96309 47.4399 2.95957C47.3669 2.92681 47.2768 2.88367 47.1726 2.83365C46.6717 2.59345 45.915 2.23049 44.8512 1.95507C44.6238 1.89607 44.3972 1.86613 44.1784 1.86613C44.0527 1.86613 43.9295 1.87582 43.8094 1.89519C43.73 1.81718 43.6514 1.7536 43.5792 1.70253C43.2341 1.45863 42.7404 1.27442 41.9281 1.08599C41.4864 0.983672 41.0311 0.901783 40.9424 0.89104C40.941 0.89104 40.9398 0.890688 40.9383 0.890512C40.926 0.888751 40.9135 0.88699 40.901 0.885581C40.835 0.877656 40.768 0.873782 40.7016 0.873782C40.5833 0.873782 40.4666 0.885933 40.3527 0.91006C40.0695 0.768824 39.7574 0.670909 39.4231 0.621072C39.4228 0.621072 39.4224 0.621072 39.4221 0.621072C39.1121 0.575108 38.8266 0.551862 38.5735 0.551862C38.2805 0.551862 38.0201 0.582681 37.7877 0.645198C37.4754 0.502553 37.1382 0.428589 36.7941 0.428589Z" fill="white"/>
<path d="M16.0865 12.6821C16.0266 14.2196 16.2184 17.1544 16.3323 18.0924C16.4308 18.8987 16.9948 18.8987 17.9351 18.9329C18.7922 18.9637 18.6246 18.2998 18.4882 17.5156C18.3033 16.459 17.9422 14.8666 17.8477 14.3674C17.7531 13.8681 17.6101 13.4867 17.7762 13.3069C17.9422 13.1271 18.0845 13.3074 18.1088 13.6041C18.133 13.9004 18.0318 14.4901 18.899 14.1029C19.7225 13.7352 19.3569 13.1736 19.2475 12.5606C19.1381 11.9475 19.0497 11.2748 19.319 11.2597C19.5879 11.244 19.7622 11.571 19.6335 13.2017C19.5048 14.8325 18.932 15.7944 18.734 16.5807C18.5361 17.3672 18.9792 17.3437 20.3795 17.1678C21.7793 16.9917 21.5659 14.7576 21.5423 12.6537C21.5264 11.2586 21.2999 9.90189 21.1492 9.14535C21.0419 8.61017 20.7588 8.12341 20.3382 7.76856C19.8796 7.3813 19.3165 7.06132 18.8432 6.81706C18.102 6.43474 17.6072 6.86144 17.4968 7.46971C17.301 8.54589 17.461 9.7957 17.461 9.7957C16.4049 9.67771 16.148 11.1438 16.0881 12.6812H16.0871L16.0865 12.6817V12.6821Z" fill="#007BFC"/>
<path d="M24.3621 11.1022C25.0768 10.8519 25.7114 9.26471 25.8147 8.5145C25.918 7.76447 26.2062 5.91713 24.6728 5.52389C24.0328 5.35976 22.5669 6.08003 21.8353 6.50532C21.3614 6.7804 21.1948 7.16272 21.1778 7.83544C21.1542 8.77936 21.3516 9.35505 21.4901 9.67838C21.5698 9.8647 21.7589 9.97793 21.959 9.93408C22.5351 9.80729 22.9761 9.53926 23.2362 9.34536C23.41 9.21593 23.4749 8.98946 23.3951 8.79028C23.3758 8.74203 23.3528 8.68744 23.326 8.62615C23.1578 8.24224 23.1917 7.69685 23.6157 7.86784C24.0737 8.05311 23.8285 9.36579 23.3596 9.88794C23.0671 10.2134 22.6393 10.2828 22.344 10.2865C22.1147 10.2886 21.9173 10.4464 21.8635 10.6656C21.8108 10.8789 21.7859 11.0951 21.7745 11.2646C21.7623 11.4465 21.8977 11.6604 22.0796 11.6951C22.1281 11.7038 22.1726 11.7124 22.2128 11.7189C22.4207 11.7541 22.5675 11.9371 22.5537 12.1446C22.3943 14.5026 20.9284 18.422 19.5841 18.929C18.6562 19.2784 17.474 19.1158 16.7653 18.9609C16.3629 18.8726 15.9499 19.0746 15.7806 19.4446C15.2771 20.5478 14.8273 22.4102 14.5969 23.4577C14.5111 23.8471 14.835 24.2072 15.2379 24.1699C17.2095 23.9867 18.772 23.6483 19.6478 23.4262C20.1476 23.2994 20.5791 22.987 20.8496 22.5538C23.1588 18.852 24.1821 14.656 24.5641 12.763C24.9116 11.0402 24.3622 11.1025 24.3622 11.1025H24.3612L24.3622 11.102L24.3621 11.1022Z" fill="#007BFC"/>
<path d="M28.2855 9.12386C28.3152 8.84333 28.0937 8.54113 27.7846 8.56878C27.4114 8.60295 26.8483 8.7595 26.2403 8.974C25.9566 9.0742 25.7378 9.32868 25.6636 9.62119C25.5444 10.0891 25.4909 10.9795 25.9049 11.8195C26.5126 13.0522 27.4416 13.657 27.0458 14.5685C26.9891 14.699 26.8336 14.7613 26.7054 14.7013C26.5955 14.647 26.5345 14.5171 26.5653 14.3986C26.6416 14.1068 26.904 13.4372 26.484 13.225C26.2365 13.0998 25.7071 13.1015 25.3222 13.1222C25.012 13.1389 24.6801 13.3513 24.575 13.6441C24.2913 14.4364 24.0844 15.1616 24.2902 16.2057C24.6064 17.8143 26.2294 17.2677 26.8935 17.1178C27.5208 16.9759 28.8817 16.795 29.0939 15.278C29.2422 14.217 29.0157 13.2785 28.4802 12.2864C27.5401 10.5431 28.207 9.88059 28.2868 9.12457H28.2862L28.2857 9.12404L28.2855 9.12386Z" fill="#007BFC"/>
<path d="M34.8848 5.23269C35.097 3.17367 34.5368 1.99341 32.7533 2.40515C31.1478 2.77567 30.5036 3.06484 30.6156 4.44374C30.7086 5.59194 31.7812 6.81481 32.0886 7.21017C32.0886 7.21017 32.0815 7.83728 31.4805 8.59876C31.3107 8.81431 31.2897 9.10946 31.4194 9.35108C31.6074 9.69871 31.9526 10.1585 32.5443 10.4148C32.5652 10.515 32.5883 10.6352 32.6108 10.7694C32.7104 11.4811 32.7025 12.5421 31.8284 12.7532C31.8284 12.7532 31.03 12.9736 30.8915 12.1126C30.8486 11.6614 30.9052 11.017 30.9322 10.1455C30.9685 8.95995 30.7728 5.34011 29.8464 3.84199C29.6771 3.5685 29.3675 3.46882 29.0729 3.55388C28.14 3.82297 26.9199 4.27204 26.0705 4.68623C25.7489 4.84279 25.6366 5.28094 25.8593 5.57715C26.7401 6.74649 28.5522 7.92375 28.891 10.193C29.1686 12.0501 29.1956 13.6803 29.3346 15.1631C29.4056 15.9126 30.0702 16.4173 30.7443 16.2359C31.3541 16.0725 32.077 15.8742 32.7325 15.6845C33.8101 15.3732 34.7475 14.4183 34.8376 13.2101C34.9438 11.7884 34.858 10.2828 34.0739 8.35203C34.0255 8.23299 34.0321 8.09968 34.0899 7.98486C34.2894 7.58457 34.7486 6.54696 34.8843 5.23357L34.8848 5.23251V5.23269ZM33.0555 5.52344C32.9131 5.53594 32.7801 5.30401 32.7592 5.00675C32.7388 4.70895 32.8378 4.45712 32.9801 4.44462C33.1224 4.43212 33.2556 4.66405 33.2765 4.96131C33.2974 5.25858 33.1978 5.51093 33.0555 5.52344Z" fill="#007BFC"/>
<path d="M40.4358 2.99012C40.2329 2.46796 39.8223 2.11435 39.2186 2.02453C38.5752 1.92926 38.1993 1.97153 38.0348 2.0705C37.805 2.20803 37.7336 2.49244 37.7336 2.49244C37.732 2.48751 37.7297 2.48276 37.7275 2.47836C37.5676 2.10096 37.1888 1.84086 36.7862 1.84843C36.4866 1.85442 36.1616 1.84843 35.867 1.8722C35.2172 1.92468 34.7987 2.57134 34.9264 3.34902C35.2215 5.14969 35.2914 6.84822 35.2694 9.17633C35.2453 11.7348 34.9786 13.4847 34.8806 14.5477C34.8597 14.7812 35.0351 14.9772 35.2522 14.9008C35.9367 14.6604 36.6394 14.4052 37.1777 14.1897C37.5933 14.0229 37.865 13.6135 37.8682 13.1574C37.887 10.019 36.8082 7.50386 37.2211 7.26489C37.5609 7.06835 37.5141 7.95804 37.5449 8.49868C37.5581 8.73748 37.7451 8.92978 37.9787 8.94334C38.286 8.9606 38.5186 8.9363 38.6836 8.90266C38.8727 8.8648 39.0146 8.7056 39.0377 8.51013C39.208 7.06078 38.8536 6.19804 39.1235 6.04219C39.417 5.8726 39.5375 6.25563 39.2933 8.21075C39.1333 9.49156 38.6703 11.3579 38.38 12.5769C38.2656 13.0568 38.7737 13.4412 39.1893 13.1889C39.9007 12.7572 40.511 12.3061 40.8959 11.9958C41.2323 11.7244 41.4386 11.3188 41.4612 10.8817C41.5353 9.44278 41.4166 7.06307 41.0834 5.30995C40.8898 4.29171 40.6397 3.51685 40.4352 2.99152V2.99047L40.4358 2.98994V2.99012Z" fill="#007BFC"/>
<path d="M46.8541 4.25019C46.3873 4.04062 45.643 3.6236 44.495 3.32616C43.8226 3.15182 43.4508 3.53027 43.5514 4.12709L43.756 4.19911C43.756 4.19911 43.5525 4.1292 43.5531 4.13308C43.5602 4.17376 43.5695 4.21479 43.5811 4.25653C43.6603 4.58637 44.1276 5.61588 44.8126 7.08407C44.9154 7.35104 45.2783 7.39982 45.4488 7.1686C45.5659 7.0094 45.7018 6.82149 45.8446 6.61351C46.0353 6.33615 45.9805 5.96087 45.7159 5.75025C45.5816 5.64353 45.4256 5.41125 45.3448 5.2878C44.9093 4.62441 45.3766 4.50466 45.7148 5.35278C45.7633 5.47464 45.8192 5.57978 45.8732 5.67294C45.9996 5.89395 46.318 5.90416 46.4576 5.69072C46.6533 5.39117 46.8562 5.07171 47.0282 4.77375C47.1381 4.58373 47.0578 4.34158 46.856 4.25107H46.8555L46.8539 4.25001L46.8541 4.25019Z" fill="#007BFC"/>
<path d="M44.1999 5.93964C44.0151 5.44038 43.378 5.25565 42.9534 5.59465C42.9034 5.6348 42.7874 5.75772 42.7413 5.80316C42.8029 5.02495 43.3367 3.26918 42.7539 2.85692C42.3355 2.56124 40.7797 2.29955 40.7752 2.29902C40.7516 2.29638 40.7384 2.29409 40.7384 2.29409C40.634 2.28159 40.5311 2.34005 40.4937 2.44132C40.4738 2.49608 40.4815 2.55666 40.5064 2.60967C40.5268 2.65352 40.547 2.69843 40.5668 2.74351C40.5718 2.76077 40.5779 2.77768 40.5856 2.79388C40.5972 2.81765 40.6086 2.84266 40.6203 2.86749C41.2102 4.28866 41.4526 6.10289 41.4872 6.43009C41.6539 8.01592 41.6978 9.48023 41.6873 10.3858L41.6669 10.9669C41.663 11.053 41.7236 11.1303 41.8121 11.1467C41.861 11.1553 41.9106 11.1407 41.9511 11.112C42.1985 10.9359 42.7246 10.3944 43.114 9.97579C43.2135 9.86854 43.2361 9.71145 43.1701 9.58096C43.1074 9.45645 43.0255 9.28194 42.9468 9.07501C42.9079 8.95315 42.8676 8.81614 42.8297 8.66028C42.6456 7.90374 42.5637 7.04752 42.866 7.11355C43.043 7.153 42.9431 7.30745 43.0419 8.57311C43.0584 8.78497 43.0952 8.99013 43.137 9.16782C43.1953 9.41701 43.5235 9.49661 43.6967 9.30377C43.9332 9.04155 44.2312 8.70537 44.4869 8.40141C44.6678 8.18639 44.7403 7.90585 44.6837 7.63518C44.5936 7.20513 44.4225 6.53311 44.2021 5.93682L44.201 5.93841L44.1999 5.93946V5.93964Z" fill="#007BFC"/>
<path d="M15.8171 17.3065C16.1965 15.9508 16.1267 13.7916 15.0134 13.5272C13.7598 13.2289 13.0858 14.2725 13.0858 14.2725C12.862 12.8931 13.5343 13.0144 14.5835 12.2611C15.6309 11.5082 16.9163 11.056 16.2867 8.27122C15.9299 6.6942 15.4576 5.71329 15.1146 5.15927C14.881 4.78117 14.4047 4.62426 13.9848 4.7817C13.1227 5.10608 11.9682 5.66169 11.0362 6.13348C10.4831 6.38918 10.0047 6.62851 9.41748 6.97825C8.99578 7.22956 9.302 7.51661 9.48183 7.65573C10.5331 8.4725 11.3704 9.19929 12.6986 10.2716C12.9212 10.4509 13.2512 10.804 12.5596 11.2659C12.1363 11.5485 12.1121 11.6093 11.3846 12.0582C11.0002 12.2954 10.7716 12.693 10.7748 13.1041C10.7748 13.1516 10.7804 13.1988 10.7875 13.2453C10.7875 13.2453 10.7875 13.2469 10.7886 13.2508C10.793 13.2768 10.9046 13.7967 10.9865 14.1177V14.1193C11.1936 14.9755 11.6336 16.5314 12.4082 18.1681C12.5769 18.5251 12.9355 18.7563 13.3345 18.7709C13.5032 18.7769 13.7067 18.7813 13.9498 18.7813C14.8999 18.8004 15.4289 18.6942 15.8175 17.3066H15.8169V17.3061L15.8171 17.3065ZM13.8273 16.415C13.8472 16.1929 13.9982 16.0181 14.1661 16.0235C14.3338 16.029 14.4526 16.2135 14.4333 16.4356C14.4135 16.6577 14.2624 16.8326 14.0946 16.8271C13.9274 16.8216 13.808 16.6371 13.8273 16.415Z" fill="#007BFC"/>
<path d="M11.8614 19.059C11.7777 18.9977 11.7046 18.9329 11.654 18.8847C11.6068 18.8403 11.538 18.8267 11.4776 18.851C11.1439 18.9865 10.8805 19.0624 10.6809 19.1067C10.0343 19.2059 9.58845 19.2031 8.993 19.0824C8.78242 19.0402 8.65157 18.8355 8.70162 18.6297C8.71914 18.5571 8.73791 18.478 8.75596 18.3979C8.80602 18.1743 8.64174 17.9592 8.40971 17.9441C8.01929 17.9191 7.39917 17.8136 6.697 17.4475C6.55077 17.371 6.51055 17.1833 6.61119 17.0537C6.87612 16.7142 7.36002 16.0665 7.69162 15.461C7.77403 15.311 7.74221 15.1246 7.61458 15.0098C7.542 14.9443 7.45459 14.8695 7.36002 14.7959C7.1902 14.6648 7.16428 14.4206 7.30443 14.2591C7.67285 13.8361 8.44188 13.1239 9.63172 12.8423C9.70036 12.8261 9.75327 12.7726 9.77133 12.7053C9.78563 12.6511 9.80708 12.5796 9.83675 12.4989C9.85535 12.4475 9.828 12.3917 9.77455 12.3771C9.34069 12.2508 7.49785 11.8794 5.1062 13.7549L3.28803 15.1375C3.28803 15.1375 3.81144 15.6584 4.39706 15.9661C4.39599 15.9677 3.58888 17.4684 1.93945 18.7672C1.93945 18.7672 4.2755 19.5746 5.64946 19.4896C5.64946 19.4896 5.5279 20.0832 5.4993 20.7618C5.4993 20.7618 7.51215 21.0081 9.2363 20.6128C9.2363 20.6128 9.95277 20.4872 10.7466 20.0836C11.2398 19.8723 11.6653 19.5084 11.8787 19.307C11.9529 19.2365 11.9436 19.1191 11.8607 19.0578L11.8612 19.0588L11.8614 19.059Z" fill="#FF6B00"/>
<path d="M23.53 17.5865C23.4932 17.6899 23.5542 17.7836 23.6961 17.7619C23.8379 17.7403 24.3927 17.6374 24.6373 17.5847C24.7599 17.5587 24.7851 17.399 24.678 17.335C24.4492 17.1991 24.2299 16.8995 24.1414 16.4691C24.1298 16.4138 24.093 16.3668 24.0376 16.3511C23.961 16.3305 23.8831 16.3739 23.8611 16.4487L23.5308 17.5849L23.5302 17.5865H23.53Z" fill="#007BFC"/>
<path d="M15.9666 5.41806L17.6862 6.297C17.7974 6.35335 17.8062 6.50445 17.705 6.57753C17.3888 6.80506 16.9605 7.65582 17.081 9.34925C17.0876 9.44399 17.0118 9.52535 16.9149 9.52535C16.8296 9.52535 16.7581 9.46301 16.7494 9.37971C16.6961 8.89437 16.4469 7.05742 15.7404 5.63625C15.6695 5.49378 15.8246 5.3455 15.9664 5.41911V5.41806H15.9666Z" fill="#007BFC"/>
<path d="M26.0807 6.7072C26.1896 7.12527 26.2336 7.87706 26.1313 8.46842C26.1165 8.55613 26.206 8.62762 26.2974 8.60226C26.536 8.53728 26.8372 8.35695 27.514 8.30817C27.6213 8.3006 27.679 8.20691 27.6279 8.11868C27.2908 7.54247 26.7522 7.05289 26.3051 6.59678C26.2132 6.50309 26.0484 6.58322 26.0802 6.70614L26.0807 6.7072Z" fill="#007BFC"/>
<path d="M34.3979 8.01915C34.4821 7.83494 34.6409 7.469 34.7531 7.10006C34.7833 7.00038 34.9187 7.01711 34.9279 7.12066C34.9769 7.693 35.0331 8.61104 34.9891 9.45211C34.9835 9.55883 34.8429 9.57662 34.8132 9.47483C34.7213 9.15749 34.5812 8.72198 34.3931 8.26605C34.3606 8.18698 34.3629 8.09716 34.3981 8.01968V8.01915H34.3979Z" fill="#007BFC"/>
<path d="M15.3866 18.7876C15.501 18.8126 15.6318 18.8738 15.711 19.0178C15.7407 19.0715 15.8143 19.0796 15.8517 19.0314C15.9166 18.9474 16.026 18.8493 16.2185 18.7996C16.2752 18.7855 16.2998 18.7211 16.2664 18.6739C16.1801 18.5548 16.0651 18.3046 16.0389 17.8041C16.0339 17.718 15.913 17.6979 15.881 17.7787C15.7618 18.0783 15.5798 18.4395 15.3472 18.6506C15.2982 18.6945 15.3226 18.7741 15.3873 18.7882H15.3867V18.7876H15.3866Z" fill="#FF6B00"/>
<path d="M44.2256 5.14734C44.2823 5.3326 44.3824 5.50201 44.5186 5.64184C44.4641 5.45552 44.3652 5.28435 44.2256 5.14734Z" fill="white"/>
<path d="M31.928 9.38934C31.6189 9.01899 31.6266 8.95331 31.762 8.46655C31.4377 8.90787 31.4513 9.18136 31.9418 9.47282C31.9725 9.49184 32.0035 9.50909 32.0353 9.526C31.994 9.47405 31.9666 9.43777 31.928 9.38899V9.38952V9.38934Z" fill="white"/>
<path d="M44.8541 8.11671C44.7204 8.30726 44.6006 8.50995 44.4912 8.71952C44.5363 8.67567 44.5818 8.63182 44.6271 8.58797C45.0581 8.19103 45.4474 7.72048 45.6953 7.14514C45.4106 7.46354 45.1015 7.75658 44.8541 8.11671Z" fill="#FF6B00"/>
<path d="M44.1164 4.81417C44.1286 4.82879 44.1412 4.8434 44.1538 4.85696C44.1071 4.75306 44.0774 4.64247 44.0395 4.53469C44.029 4.49243 44.0197 4.44963 44.012 4.40684C43.9802 4.23954 43.9373 4.03473 43.94 3.92044C43.94 3.91656 43.941 3.94315 43.9405 3.93505C43.9294 3.79699 43.9625 3.65399 44.0724 3.5603C43.8645 3.6318 43.7877 3.85176 43.7755 4.05093C43.7485 4.357 43.9058 4.66941 44.0674 4.87898C44.0933 4.91473 44.1461 4.99697 44.1647 5.00243C44.1509 4.9385 44.1339 4.87616 44.1162 4.81347H44.1157L44.1162 4.81399L44.1164 4.81417Z" fill="white"/>
<path d="M11.8935 12.0556C11.8061 12.0804 11.7357 12.1412 11.6588 12.1856C10.9359 12.6323 10.9209 13.5916 11.2564 14.2696C11.2707 14.3038 11.2866 14.3362 11.3015 14.3698C11.2988 14.1921 11.2899 14.0157 11.2909 13.838C11.2827 13.3369 11.3515 12.9139 11.54 12.5034C11.6258 12.3594 11.7412 12.2174 11.8732 12.1016C11.9002 12.0875 11.9259 12.0707 11.8925 12.0556H11.8935Z" fill="white"/>
<path d="M15.9541 8.36846C15.9798 8.48645 15.9981 8.61871 16.0102 8.75625C16.0163 8.9128 16.0129 9.06918 15.9991 9.22574C15.9798 9.58957 15.9661 9.69048 15.8887 10.0511C15.8243 10.3003 15.7099 10.5196 15.6506 10.6842C15.6094 10.7758 15.5528 10.8591 15.5038 10.9473C15.4559 11.0491 15.3999 11.1462 15.329 11.2344C15.2492 11.3605 15.1404 11.4862 15.0596 11.5771C15.1035 11.5505 15.147 11.5223 15.1894 11.4931C15.1118 11.5863 15.0837 11.6437 15.2135 11.5787C15.2662 11.5526 15.3944 11.4443 15.4378 11.4043C15.8887 10.9732 16.1965 10.3857 16.224 9.76233C16.2405 9.29072 16.1811 8.78971 15.9541 8.36829V8.36846Z" fill="white"/>
<path d="M15.8038 15.119C15.8 14.8249 15.7592 14.5266 15.613 14.2643C15.2374 13.6221 14.6218 13.4861 14.0176 13.9345C14.1776 13.8739 14.3052 13.8473 14.4668 13.8311C14.6146 13.8191 14.827 13.829 14.982 13.9292C15.1947 14.0608 15.3563 14.2768 15.467 14.4898C15.5841 14.7155 15.6314 15.0459 15.7215 15.638C15.7237 15.6526 15.7353 15.6607 15.7474 15.6617C15.7501 15.7045 15.7541 15.7441 15.7596 15.7609C15.7678 15.7126 15.776 15.664 15.7837 15.6158C15.815 15.4543 15.8211 15.2864 15.8041 15.1207V15.1191L15.8038 15.119Z" fill="white"/>
<path d="M17.4316 18.5144C17.0854 18.4802 17.016 18.1326 16.9307 17.8597C16.8412 17.5309 16.7416 17.2054 16.6426 16.8795C16.6596 17.4611 16.6002 18.827 17.536 18.5746C17.5702 18.5671 17.6031 18.5579 17.6372 18.5491C17.5686 18.5387 17.4997 18.5296 17.4322 18.5144H17.4316Z" fill="white"/>
<path d="M21.3333 20.2665C21.1267 20.6267 20.9029 20.9798 20.7418 21.3633C20.7055 21.4343 20.6666 21.5133 20.6253 21.5961C20.6171 21.6091 20.6094 21.6217 20.6006 21.6345C20.4857 21.8219 20.4054 21.9025 20.2971 22.0813C20.1398 22.3088 20.0667 22.4523 19.8722 22.6262C19.8271 22.67 19.7638 22.7253 19.7275 22.7621C19.7583 22.7475 19.7887 22.7329 19.8194 22.7177C19.82 22.7177 19.821 22.7172 19.8216 22.7167C19.8105 22.7264 19.8007 22.7355 19.7896 22.7454C19.8216 22.7308 19.8545 22.7156 19.8863 22.6999C19.9181 22.6864 19.949 22.6702 19.9798 22.654C19.9056 22.7119 19.8203 22.7547 19.7422 22.8072C19.8857 22.7595 20.0463 22.7313 20.1567 22.6214C20.3173 22.4573 20.4889 22.3002 20.6235 22.1139C20.7517 21.9291 20.8897 21.7506 21.0051 21.5577C21.1405 21.3085 21.2652 21.0541 21.3927 20.8012C21.5143 20.5342 21.617 20.2602 21.7413 19.9943C21.8451 19.7414 21.936 19.483 22.0514 19.2344C21.7924 19.5647 21.5715 19.9212 21.3344 20.2662H21.3333V20.2667V20.2665Z" fill="white"/>
<path d="M15.3956 23.3678C15.2614 23.0938 15.3175 22.7251 15.3466 22.3963C15.3538 22.2778 15.3713 22.1601 15.3819 22.0421C15.3819 22.0324 15.3742 22.0238 15.3643 22.0226C15.3543 22.021 15.345 22.0275 15.3424 22.0367C15.3418 22.0411 15.3418 22.0448 15.3413 22.0492C15.3232 22.0692 15.3193 22.1207 15.3023 22.152C15.2088 22.4553 15.0928 22.765 15.0978 23.0857C15.1309 23.6267 15.5585 23.9083 16.0837 23.7665C15.8077 23.7324 15.5065 23.6251 15.3969 23.3673H15.3958V23.3678H15.3956Z" fill="white"/>
<path d="M24.6897 13.9188C24.522 14.3173 24.4852 14.7588 24.5117 15.1866C24.5238 15.3421 24.5419 15.4981 24.5744 15.6501C24.576 15.6235 24.5816 15.5776 24.5855 15.5444C24.5905 15.5651 24.5955 15.5857 24.5998 15.6047C24.6014 15.5115 24.6086 15.4189 24.6146 15.3268C24.6697 14.958 24.745 14.5561 24.835 14.1814C24.8703 14.0481 24.8967 13.9014 24.9768 13.7978C25.0258 13.7279 25.1686 13.6635 25.1972 13.6527C25.3606 13.5807 25.5029 13.5823 25.6799 13.5606C25.2966 13.4685 24.8426 13.4988 24.6881 13.9186H24.6897V13.9188Z" fill="white"/>
<path d="M32.5488 15.3965C32.7313 15.3673 32.9006 15.2827 33.0272 15.1496C32.855 15.2049 32.6906 15.284 32.5488 15.3965Z" fill="white"/>
<path d="M34.5731 12.5082C34.5648 12.4698 34.5555 12.4313 34.5466 12.3929C34.535 12.5257 34.523 12.6171 34.5066 12.7363C34.5066 12.7391 34.506 12.7428 34.5055 12.7461C34.3818 13.4242 34.2525 13.748 33.9111 14.2816C33.7967 14.4716 33.7154 14.559 33.5768 14.7203C33.4971 14.8117 33.4301 14.9158 33.335 14.9938C33.491 14.9239 33.6203 14.8069 33.7633 14.7164C34.0239 14.5382 34.2388 14.2973 34.4082 14.0345C34.6583 13.5716 34.6893 13.0142 34.5727 12.5084H34.5732L34.5731 12.5082Z" fill="white"/>
<path d="M37.3669 11.9151C37.3383 11.8149 37.3081 11.7158 37.2784 11.6161C37.2823 11.8316 37.285 12.0477 37.2954 12.2633C37.3102 12.5378 37.3279 12.8136 37.2898 13.0876C37.2909 13.1612 37.2196 13.4749 37.0628 13.6667C36.9825 13.769 36.8308 13.9488 36.6631 14.0305C36.9831 13.9692 37.2702 13.7445 37.423 13.4629C37.6725 12.9733 37.5054 12.4128 37.3663 11.9156H37.3669V11.9151Z" fill="white"/>
<path d="M42.6782 4.74915C42.7052 4.64736 42.7277 4.54381 42.7404 4.43886C42.8175 4.00722 42.8509 3.52628 42.5963 3.14889C42.5139 3.0427 42.3913 2.9793 42.2637 2.9365C42.2384 2.9284 42.2208 2.96133 42.2417 2.97718C42.3407 3.04974 42.4313 3.13268 42.4808 3.24205C42.5704 3.49229 42.5561 3.61257 42.5903 3.83728C42.5919 3.86704 42.5947 3.8968 42.5974 3.92657C42.6222 4.20763 42.6358 4.48975 42.665 4.77081C42.665 4.77786 42.665 4.7849 42.6655 4.79247C42.6655 4.79142 42.666 4.79036 42.6666 4.7886C42.6666 4.79071 42.6666 4.79406 42.6671 4.79617C42.6711 4.7805 42.6737 4.76535 42.6769 4.74968L42.678 4.74915H42.6782Z" fill="white"/>
<path d="M43.5107 8.56865C43.4728 8.40769 43.4299 8.24744 43.382 8.08929C43.3644 8.40329 43.3435 9.0105 43.8142 8.95203C43.6185 8.91523 43.5387 8.74564 43.5107 8.56865Z" fill="white"/>
<path d="M35.408 3.63127C35.4223 3.68111 35.4371 3.73147 35.4546 3.78026C35.452 3.7239 35.4507 3.66702 35.4502 3.61067C35.4475 3.33665 35.5013 3.06633 35.5805 2.80534C35.6343 2.62237 35.7206 2.44732 35.8774 2.33038C35.4014 2.53678 35.2782 3.17745 35.4074 3.6318H35.408V3.63127Z" fill="white"/>
<path d="M21.6656 7.04377C21.3 7.57948 21.4963 8.27315 21.6436 8.85219C21.6611 8.90044 21.7162 9.13272 21.7085 9.01139C21.7151 8.69352 21.721 8.37494 21.7146 8.05654C21.7185 7.7267 21.665 7.38823 21.8179 7.09149C21.9151 6.93335 22.0724 6.82293 22.2149 6.70758C22.0159 6.78876 21.8014 6.87171 21.6656 7.04447V7.04394V7.04377Z" fill="white"/>
<path d="M19.1469 22.9548C18.9599 23.0008 18.8171 23.0626 18.6494 23.121C18.9233 23.1432 19.1986 23.0756 19.4324 22.9331C19.461 22.9169 19.4885 22.8995 19.5166 22.8817C19.3929 22.9018 19.2686 22.924 19.1471 22.9543V22.9548H19.1469Z" fill="white"/>
<path d="M19.1721 7.61621C18.8878 7.34713 18.4023 6.94737 18.0132 7.24745C17.8235 7.41968 17.8153 7.6893 17.8119 7.92598C17.8063 8.23839 17.8174 8.55256 17.8591 8.86233C17.8943 8.55679 17.9515 8.24332 17.9981 7.93127C18.0278 7.68331 18.0779 7.4623 18.1916 7.38376C18.2284 7.35945 18.2591 7.35012 18.3033 7.34431C18.5478 7.32863 18.775 7.43747 18.9888 7.54524C19.0652 7.58152 19.1406 7.61833 19.2148 7.65795C19.2005 7.64386 19.1857 7.62925 19.1714 7.61569H19.1719V7.61621H19.1721Z" fill="white"/>
<path d="M23.9336 13.6636C23.9286 13.6842 23.9039 13.7779 23.8968 13.8157C23.8896 13.8536 23.8775 13.9528 23.8643 13.9749C24.0139 13.6847 24.154 13.3889 24.269 13.083C24.4526 12.5717 24.5439 12.0047 24.3866 11.4744C24.2899 11.2237 24.1442 11.1397 23.8995 11.125C23.8825 11.124 23.8769 11.1472 23.8929 11.1532C23.9039 11.1576 23.9138 11.1608 23.9247 11.1652C24.077 11.2226 24.1869 11.3552 24.2112 11.5141C24.2398 11.7014 24.2404 11.9267 24.2277 12.0816C24.1739 12.7304 24.1183 12.9016 23.9665 13.5271C23.956 13.5704 23.9456 13.6153 23.9342 13.6631" fill="white"/>
<path d="M27.3913 8.97658C27.5057 8.98908 27.642 8.95756 27.7267 9.03082C27.7515 9.07027 27.7333 9.12222 27.7283 9.16625C27.7042 9.28371 27.6602 9.39483 27.6277 9.51018C27.5111 9.93036 27.5853 10.3692 27.6958 10.7834C27.7035 10.5138 27.7085 10.243 27.7342 9.97369C27.7612 9.74616 27.7909 9.58696 27.8436 9.3221C27.914 8.91635 27.7546 8.86282 27.3912 8.97605H27.3906L27.3912 8.97658H27.3913Z" fill="white"/>
<path d="M15.0013 5.92735C14.871 5.63167 14.6204 5.09984 14.2172 5.20867C14.0435 5.24882 13.8835 5.34462 13.7812 5.49026C13.9132 5.37386 14.0946 5.31697 14.236 5.30729C14.2871 5.30518 14.341 5.30289 14.3899 5.32032C14.4482 5.34515 14.4938 5.39076 14.5378 5.43461C14.6609 5.55648 14.7637 5.69613 14.8638 5.83701C14.9414 5.95078 15.0217 6.06331 15.0969 6.17883C15.0683 6.09377 15.036 6.01048 15.0008 5.92753H15.0013V5.92735Z" fill="white"/>
<path d="M39.4935 12.6324C39.2026 12.7033 38.8678 12.6567 38.8403 12.3036C38.7478 12.7368 39.2032 12.8847 39.5258 12.6681C39.56 12.6465 39.5928 12.6248 39.6248 12.6C39.5814 12.6119 39.538 12.6222 39.4935 12.6318V12.6324Z" fill="white"/>
<path d="M9.93555 7.2952C10.1159 7.19129 10.3088 7.09761 10.4632 6.96429C10.2664 7.03474 10.0691 7.13107 9.93555 7.2952Z" fill="white"/>
<path d="M30.7725 15.8367C30.4865 15.8615 30.2446 15.6639 30.1132 15.4679C30.0362 15.3234 29.9967 15.0916 29.9445 14.8998C29.8472 14.4703 29.7641 14.03 29.7191 13.6049C29.6581 14.0112 29.6481 14.4259 29.6833 14.8348C29.7153 15.0883 29.7432 15.3526 29.8675 15.5817C30.1461 15.9977 30.6229 16.1579 31.0584 15.8573C31.1177 15.8194 31.1765 15.7803 31.2337 15.7393C31.082 15.7805 30.9296 15.8291 30.7718 15.8363H30.7723V15.8369L30.7725 15.8367Z" fill="white"/>
<path d="M16.5214 16.1584C16.5137 16.1383 16.5103 16.1179 16.5089 16.1529C16.4891 16.3132 16.51 16.4806 16.5931 16.6219C16.5915 16.4648 16.5783 16.3067 16.5216 16.1584H16.5214Z" fill="white"/>
<path d="M18.8975 21.933C18.9475 21.9173 18.9942 21.8925 19.0355 21.8594C18.9854 21.8756 18.9388 21.9006 18.8975 21.933Z" fill="#FF6B00"/>
<path d="M15.2489 19.1269C15.1379 18.9211 14.868 18.9309 14.6635 18.9427C14.3347 18.9628 14.0037 18.9963 13.6826 19.0683C14.023 19.0824 14.3628 19.1181 14.7037 19.1301C14.8989 19.1372 14.9852 19.1523 15.0435 19.1951C15.0457 19.1972 15.0491 19.1995 15.0512 19.2016C15.0896 19.24 15.0984 19.24 15.1222 19.3159C15.1283 19.3321 15.1261 19.3994 15.1261 19.4112C15.1261 19.6192 15.1145 19.7269 15.0821 19.8817C15.0509 20.0383 15.0194 20.2186 15.0008 20.366C15.0893 20.1228 15.1965 19.8867 15.2718 19.6398C15.3086 19.4735 15.3152 19.2872 15.2509 19.1269H15.2493H15.2489Z" fill="#FF6B00"/>
<path d="M14.6357 21.8667C14.7952 21.4616 14.8914 21.0347 14.9096 20.6005C14.7541 21.0073 14.6495 21.4313 14.6357 21.8667Z" fill="#FF6B00"/>
<path d="M12.4806 10.4193C12.3305 10.2828 11.9225 10.056 11.6807 9.89288C11.9143 10.1859 12.1908 10.442 12.4697 10.6917C12.5142 10.7318 12.5174 10.8 12.4763 10.8439C12.3802 10.9462 12.2509 11.021 12.1458 11.1124C12.109 11.1471 11.866 11.3188 11.9831 11.2596C12.2321 11.1401 12.5285 11.0571 12.7094 10.84C12.8233 10.6628 12.6056 10.5156 12.4795 10.4193H12.4806Z" fill="#FF6B00"/>
<path d="M10.9889 12.134C10.8091 12.1937 10.692 12.3229 10.599 12.4448C10.3697 12.753 10.3615 13.124 10.5084 13.4534C10.5259 13.4933 10.5436 13.5335 10.5627 13.5729C10.5617 13.5307 10.5622 13.4884 10.5617 13.4461C10.5606 13.3574 10.5577 13.2441 10.5545 13.1342C10.5463 12.8326 10.6398 12.5336 10.8332 12.2916C10.8843 12.2271 10.9378 12.1708 10.9889 12.134Z" fill="#FF6B00"/>
<path d="M10.5918 13.7545C10.6056 13.8865 10.6501 14.036 10.7314 14.1331C10.7083 13.9998 10.6681 13.8682 10.5918 13.7545Z" fill="#FF6B00"/>
<path d="M25.5829 17.6433C25.3019 17.7083 25.0198 17.7689 24.7356 17.8177C24.4556 17.8599 24.1796 17.9205 23.9025 17.9781L23.9476 17.9726C23.764 17.9943 23.5903 18.0707 23.4599 18.1908C23.2295 18.3722 23.1476 18.6452 23.0536 18.8988C22.9315 19.2291 22.7755 19.5491 22.6721 19.885C22.6287 20.2548 23.039 19.4229 23.2719 18.9919C23.3956 18.7758 23.5654 18.5663 23.7222 18.4303C23.8502 18.3264 23.875 18.3236 23.9465 18.297C23.9812 18.2847 24.0157 18.2727 24.0509 18.2618C24.306 18.1838 24.5556 18.0901 24.8085 18.0068C25.075 17.9121 25.3296 17.7923 25.5793 17.6657C25.6058 17.6521 25.6331 17.6391 25.6596 17.625C25.6344 17.631 25.609 17.637 25.5833 17.6428H25.5827V17.6433H25.5829Z" fill="#FF6B00"/>
<path d="M20.4174 6.80443C20.4174 6.80443 20.4187 6.80401 20.4197 6.80359H20.4205C20.4205 6.80359 20.4188 6.80443 20.417 6.80485L20.4174 6.80443Z" fill="#FF6B00"/>
<path d="M20.4823 6.76724C20.4378 6.78732 20.3311 6.83381 20.17 6.87713C20.0442 6.9113 19.911 6.90866 19.7957 6.84843C19.6082 6.75034 19.423 6.64749 19.2471 6.53109C19.3509 6.66862 19.4725 6.79207 19.5962 6.91183C19.606 6.91993 19.6155 6.92908 19.6253 6.93789C19.8254 7.12685 20.1175 7.19359 20.3758 7.09603C20.7018 6.97417 21.0157 6.71741 21.2676 6.54306C21.3309 6.49534 21.3942 6.44726 21.4573 6.39954C21.1164 6.50626 20.8102 6.62477 20.4825 6.76619V6.76724H20.4823Z" fill="#FF6B00"/>
<path d="M30.8796 2.66907C30.3045 2.80343 29.7657 3.03466 29.2241 3.25567C29.191 3.26166 29.1587 3.26976 29.1322 3.28755C29.1065 3.32488 29.1558 3.32594 29.1828 3.32171C29.5216 3.2599 29.8519 3.16674 30.184 3.07957C30.7025 2.93005 31.0879 2.76117 31.5718 2.54174C31.5877 2.5347 31.6025 2.52765 31.6184 2.52008C31.3699 2.56023 31.1225 2.60831 30.8789 2.66959H30.8794V2.66907H30.8796Z" fill="#FF6B00"/>
<path d="M13.0711 18.9776C12.8703 18.9343 12.6396 18.8244 12.5532 18.7111C12.4663 18.6078 12.335 18.41 12.225 18.2346C12.1728 18.1511 12.1217 18.0629 12.0584 17.9888C12.0486 17.9877 12.0568 17.9947 12.0595 17.9991C12.1898 18.2857 12.2783 18.68 12.535 18.8776C12.7093 18.995 12.9463 19.0433 13.1551 19.0271C13.2002 19.0243 13.2457 19.019 13.291 19.014C13.2179 19.0026 13.1442 18.9934 13.0716 18.9788H13.0711V18.9778V18.9776Z" fill="#FF6B00"/>
<path d="M34.5272 3.28783C34.4294 3.01046 34.2472 2.75212 33.9802 2.61035C33.7553 2.50046 33.603 2.51666 33.3275 2.52864C33.073 2.54924 32.8327 2.63589 32.5869 2.69981C32.7941 2.69435 33.0004 2.66794 33.2083 2.6852C33.3953 2.69224 33.6927 2.76973 33.7614 2.81463C34.0874 3.03776 34.1555 3.26194 34.3155 3.77317C34.3979 4.09703 34.4056 4.24161 34.408 4.69772C34.3915 5.05733 34.3309 5.41306 34.3238 5.77443C34.4525 5.28856 34.648 4.81589 34.675 4.30941C34.7074 3.96284 34.6525 3.61292 34.5254 3.28906H34.5265L34.527 3.288L34.5272 3.28783Z" fill="white"/>
<path d="M30.2363 6.70005C30.2297 6.55265 30.2225 6.40649 30.2159 6.25926C30.2038 5.91322 30.1637 5.57034 30.0795 5.2368C29.9894 4.82999 29.7338 3.99649 29.3659 3.83905C29.2186 3.7952 29.0663 3.85367 28.9265 3.9072C28.7435 3.98839 28.5626 4.07609 28.3838 4.16925C28.6982 4.10691 29.0484 3.99103 29.2678 4.04474C29.3596 4.07732 29.4569 4.2809 29.5329 4.45912C29.6929 4.8631 29.838 5.26339 30.0014 5.79523C30.0795 6.08386 30.1437 6.37743 30.2257 6.66554C30.2302 6.67963 30.2329 6.69371 30.2374 6.70675V6.70023H30.2363V6.70005Z" fill="white"/>
<path d="M38.2382 8.68688C38.0061 8.59108 37.8329 8.35703 37.7961 8.11383C37.6972 8.39172 37.9214 8.72738 38.2276 8.72034C38.2591 8.72034 38.2904 8.71822 38.3211 8.71276C38.2925 8.70572 38.265 8.69656 38.2369 8.68617H38.2375L38.238 8.6867L38.2382 8.68688Z" fill="white"/>
<path d="M35.082 15.1582C34.7148 15.2373 34.3519 15.338 33.9885 15.4328C33.6805 15.5249 33.3814 15.6392 33.1006 15.7642C33.5448 15.6651 33.9962 15.586 34.4284 15.4453C34.6676 15.3618 34.8952 15.2519 35.1256 15.1496C35.1113 15.1522 35.0965 15.1556 35.0822 15.1582H35.082Z" fill="#FF6B00"/>
<path d="M38.4155 13.6262C38.2643 13.6777 38.1324 13.7698 37.9883 13.8342C38.2092 13.8196 38.4177 13.7178 38.5964 13.5931C38.6163 13.5796 38.6365 13.565 38.6563 13.5514C38.575 13.572 38.4942 13.5968 38.4166 13.6268H38.4161L38.4155 13.6262Z" fill="#FF6B00"/>
<path d="M38.4929 10.8208C38.5495 10.6584 38.665 10.2435 38.7188 9.98938C38.7726 9.71747 38.7864 9.43746 38.825 9.17859C38.6194 9.69845 38.477 10.2608 38.4923 10.8206H38.4929V10.8208Z" fill="#FF6B00"/>
<path d="M44.3783 3.07437C44.0991 2.94229 43.8066 2.82412 43.4986 2.74294C43.1797 2.66439 42.8478 2.6297 42.5156 2.62054C43.0396 2.77428 43.5624 2.93366 44.1068 3.03545C44.2124 3.05605 44.3184 3.07613 44.4235 3.09726C44.4087 3.09022 44.3939 3.08264 44.379 3.07507H44.3785V3.07454L44.3783 3.07437Z" fill="#FF6B00"/>
<path d="M40.6325 4.84038C40.6325 4.83598 40.6325 4.83228 40.632 4.82788C40.5785 4.28688 40.4615 3.75117 40.2861 3.23571C40.0585 2.55929 39.5203 2.17415 38.79 2.30746C38.8665 2.33617 38.9895 2.3367 39.0859 2.36752C39.1476 2.38425 39.2634 2.43197 39.3497 2.48234C39.3553 2.48621 39.3614 2.48938 39.3662 2.49325C39.6636 2.70828 39.7532 2.83824 39.8907 3.12794C39.8923 3.13234 39.8951 3.13657 39.8962 3.14097C40.1535 3.80171 40.4053 4.4651 40.6434 5.13342C40.6912 5.30512 40.6363 4.91523 40.6324 4.84038H40.6325Z" fill="white"/>
<path d="M27.3369 16.6207C27.5157 16.6034 27.6828 16.5324 27.824 16.4241C27.6492 16.4544 27.4831 16.5217 27.3369 16.6207Z" fill="white"/>
<path d="M41.1358 9.51942C41.1314 9.49283 41.0924 9.49389 41.0892 9.52048C41.0491 9.90509 41.0407 10.2744 40.9726 10.5933C40.9247 10.8652 40.8082 11.1625 40.735 11.3245C40.7322 11.3315 40.735 11.3256 40.7427 11.3055C40.6773 11.467 40.4937 11.6765 40.426 11.7718C40.4149 11.7854 40.4056 11.7977 40.3952 11.8113C40.3391 11.8676 40.2803 11.9217 40.2254 11.9796C40.2474 11.9676 40.2688 11.9558 40.2903 11.9439C40.259 11.984 40.2254 12.024 40.1875 12.0707C40.2254 12.0464 40.264 12.0219 40.3024 11.9976C40.4993 11.8676 40.6982 11.7338 40.8661 11.5686C40.9887 11.4284 41.0833 11.2636 41.1542 11.0936C41.3561 10.5879 41.2154 10.0375 41.1362 9.51978V9.51925L41.1358 9.51942Z" fill="white"/>
<path d="M28.7897 14.3177C28.7648 14.218 28.7357 14.0897 28.7089 14.0067C28.7033 14.1811 28.7023 14.3551 28.7078 14.5294C28.7128 14.7358 28.6837 14.8321 28.6495 15.0331C28.6193 15.1945 28.5934 15.358 28.5314 15.5112C28.5017 15.5691 28.4164 15.7711 28.3444 15.8958C28.213 16.0761 28.1063 16.2381 27.9062 16.3676C28.129 16.3112 28.3081 16.1552 28.4654 15.9972C28.5804 15.857 28.6715 15.695 28.7502 15.532C28.8217 15.3738 28.8387 15.1977 28.854 15.0272C28.8832 14.7879 28.8546 14.5489 28.7908 14.3177H28.7897Z" fill="white"/>
<path d="M46.3986 5.42347C46.1777 5.58426 45.9873 5.31517 45.8818 5.14734C45.9006 5.25512 45.9303 5.36677 46.0034 5.45165C46.1183 5.59412 46.313 5.60539 46.4213 5.44954C46.4389 5.42735 46.4555 5.40516 46.4703 5.38138C46.4473 5.39706 46.4237 5.41062 46.3993 5.42418H46.3988V5.42365L46.3986 5.42347Z" fill="white"/>
<path d="M45.4393 6.83863C45.3781 6.88301 45.3013 6.94271 45.2215 6.91277C45.1039 6.8543 45.0346 6.70919 44.9895 6.59155C44.9548 6.86839 45.2105 7.20352 45.4441 6.88723C45.4661 6.85694 45.4825 6.82278 45.4963 6.78756C45.4782 6.80482 45.4595 6.82172 45.4396 6.83687L45.4391 6.83845L45.4393 6.83863Z" fill="white"/>
<path d="M34.9129 2.00143C34.6769 2.0252 34.4504 2.09776 34.2334 2.19039C34.2146 2.20183 34.129 2.22173 34.1685 2.24674C34.174 2.24621 34.1789 2.24463 34.1844 2.24287C34.1855 2.24287 34.1855 2.24392 34.1866 2.24445C34.4988 2.18651 34.8029 2.09828 35.1052 2.00125C35.1211 1.99632 35.136 1.99156 35.1519 1.98663C35.0716 1.98769 34.9919 1.99209 34.9121 2.00072H34.9127V2.00125L34.9129 2.00143Z" fill="#FF6B00"/>
<path d="M32.0644 10.6562C32.0111 11.1268 32.0056 11.6025 31.8506 12.0552C32.2464 11.6121 32.2326 11.1925 32.0644 10.6562Z" fill="#FF6B00"/>
<path d="M25.9377 12.6017C25.8058 12.3655 25.6947 12.1174 25.5632 11.8809C25.3923 11.5759 25.2053 11.2679 25.152 10.9174C25.0095 11.5813 25.4137 12.235 25.8998 12.6646C25.9414 12.6998 25.984 12.7345 26.0272 12.7674C25.997 12.7121 25.9663 12.657 25.9366 12.6012H25.9371L25.9377 12.6017Z" fill="#FF6B00"/>
<path d="M19.6708 18.0306C19.5047 18.1616 19.354 18.3161 19.1699 18.4221C19.4382 18.3804 19.6873 18.2407 19.9012 18.0798C20.1102 17.9075 20.258 17.6763 20.3757 17.4375C20.1458 17.6416 19.9078 17.835 19.6708 18.031V18.0304V18.0306Z" fill="#FF6B00"/>
<path d="M45.9131 6.7756C45.9939 6.72911 46.0847 6.58822 46.1457 6.47992C46.0368 6.54983 45.961 6.65814 45.9131 6.7756Z" fill="#FF6B00"/>
<path d="M31.8262 2.43055C32.0317 2.44359 32.2357 2.38776 32.4259 2.31256C32.2187 2.31045 32.0196 2.36134 31.8262 2.43055Z" fill="#FF6B00"/>
<path d="M26.0068 17.5703C26.2659 17.5763 26.522 17.5249 26.76 17.4268C26.5009 17.4213 26.2432 17.4652 26.0068 17.5703Z" fill="#FF6B00"/>
<path d="M24.7725 5.06601C24.987 4.9843 25.1942 4.94203 25.4114 4.83038C25.1886 4.86508 24.9446 4.9165 24.7725 5.06601Z" fill="#FF6B00"/>
<path d="M28.873 16.7474C29.291 16.7409 29.6955 16.631 30.082 16.4799C29.663 16.482 29.2595 16.5947 28.873 16.7474Z" fill="#FF6B00"/>
<path d="M15.8717 20.0635C15.8717 20.1198 15.8617 20.1653 15.8921 20.082C15.9459 19.9497 16.0185 19.7905 16.0807 19.6394C16.1252 19.5376 16.1599 19.4283 16.2364 19.3438C15.9922 19.491 15.8846 19.7933 15.8719 20.0635H15.8717Z" fill="white"/>
<path d="M19.0127 12.8906C19.094 13.1662 19.027 13.4522 18.96 13.7241C19.165 13.4809 19.2265 13.1484 19.0127 12.8906Z" fill="white"/>
<path d="M16.6989 6.17554C16.5758 6.1051 16.4565 6.01141 16.3151 5.98218C16.1035 5.98112 16.254 6.24053 16.3003 6.34073C16.3689 6.47175 16.442 6.60066 16.5032 6.73556C16.4976 6.53621 16.4361 6.34513 16.362 6.16093C16.3543 6.13927 16.3434 6.11866 16.3355 6.097C16.4147 6.10457 16.5246 6.14842 16.6054 6.15758C16.6367 6.16357 16.6682 6.16956 16.7 6.17484H16.6995L16.6989 6.17537V6.17554Z" fill="white"/>
<path d="M26.4653 7.28577C26.4335 7.57933 26.4181 7.87449 26.3818 8.16752C26.5408 7.89896 26.5397 7.57986 26.4653 7.28577Z" fill="white"/>
<path d="M23.8575 16.9894C23.7663 17.1269 23.7063 17.285 23.708 17.4513C23.7817 17.3072 23.8362 17.1882 23.8614 17.0223C23.8625 17.0027 23.8807 16.9453 23.8564 16.9897H23.857L23.8575 16.9892V16.9894Z" fill="white"/>
<path d="M34.4951 8.21429C34.5441 8.38107 34.6122 8.54185 34.7084 8.68766C34.676 8.51543 34.6067 8.3513 34.4951 8.21429Z" fill="white"/>
<path d="M21.2079 15.2418C21.2084 15.2272 21.209 15.212 21.2095 15.1979C21.2079 15.2023 21.2066 15.2065 21.2045 15.2115C21.1984 15.1389 21.192 15.0658 21.1864 14.9933C21.1843 15.0047 21.1814 15.016 21.1793 15.0275C21.1385 15.2407 21.1165 15.4228 21.0897 15.6058C21.082 15.6399 21.0733 15.6729 21.0656 15.707C21.0431 15.8344 20.988 15.9957 20.9392 16.1274C20.9162 16.1713 20.8931 16.2151 20.8706 16.259C20.7265 16.539 20.6253 16.6191 20.3456 16.7686C20.1625 16.8487 20.0107 16.9565 19.8145 16.9792C19.8397 16.9847 19.865 16.9873 19.8908 16.9891C19.8765 16.9935 19.8627 16.9972 19.8479 17.0011C20.0047 17.0125 20.1596 16.9745 20.3114 16.9392C20.451 16.9077 20.5935 16.8753 20.7193 16.8049C20.8616 16.707 20.9964 16.5791 21.0635 16.4192C21.1103 16.2952 21.135 16.164 21.168 16.0364C21.1906 15.921 21.195 15.8034 21.1977 15.6864C21.1993 15.676 21.2016 15.6664 21.2027 15.6556C21.2236 15.5186 21.2192 15.3811 21.2088 15.2441L21.2083 15.2419L21.2079 15.2418Z" fill="white"/>
<path d="M10.21 19.8967C9.51446 20.0721 8.84929 20.078 8.09993 20.0992C7.42421 20.1247 6.74903 20.1879 6.07617 20.2584C7.47212 20.4663 8.94833 20.5861 10.2656 19.9285C10.3316 19.8982 10.3975 19.8672 10.4624 19.8348C10.3782 19.8565 10.2937 19.8766 10.2089 19.8961H10.2095L10.21 19.8967Z" fill="white"/>
<path d="M3.78627 17.794C3.55638 17.9402 3.32936 18.0941 3.12378 18.2733C2.97255 18.4067 2.83079 18.5495 2.67188 18.6742C3.11449 18.491 3.47451 18.1608 3.79181 17.8141C3.83078 17.7686 3.86439 17.742 3.78573 17.7945H3.78627V17.794Z" fill="white"/>
<path d="M8.23379 12.9103C7.87145 13.0695 7.58829 13.3652 7.35626 13.6755C7.32444 13.7221 7.29351 13.7692 7.26562 13.8179C7.31175 13.7713 7.35804 13.7269 7.40685 13.6836C7.66194 13.468 7.92543 13.2644 8.22057 13.0993C8.55485 12.9281 8.91112 12.7863 9.27615 12.6942C8.92149 12.6969 8.56146 12.7765 8.23433 12.9098L8.23379 12.9103Z" fill="white"/>
<path d="M8.136 14.7453C7.99352 14.69 7.83746 14.6413 7.68248 14.6538C7.82155 14.6819 7.94526 14.7615 8.06288 14.8369C8.1789 14.9084 8.27507 15.0308 8.23771 15.203C8.20196 15.3936 8.08702 15.5519 7.97547 15.7187C7.81065 15.9564 7.64279 16.1926 7.47351 16.4271C7.45366 16.4553 7.43293 16.483 7.41309 16.5106C7.60776 16.3546 7.79796 16.1933 7.97332 16.0161C8.16513 15.8081 8.38126 15.591 8.43185 15.3039C8.4869 15.0743 8.37089 14.8204 8.13546 14.7455H8.136V14.7453Z" fill="#FF6B00"/>
</g>
<defs>
<clipPath id="clip0_1036_2584">
<rect width="48" height="25.1429" fill="white" transform="translate(0.5 0.428589)"/>
</clipPath>
</defs>
</svg>
